<svg enable-background="new 0 0 100 100" viewBox="0 0 100 100" xmlns="http://www.w3.org/2000/svg"><g id="Layer_1"/><g id="Banner"/><g id="Sixer"/><g id="Sheo"/><g id="Score_Board"/><g id="Wicket_1_"/><g id="Catch"/><g id="Fifty"/><g id="Century"/><g id="Red_Card"/><g id="Cricket_Helmet"/><g id="Medal_2_"/><g id="Badge"><g><g><path d="m31.67 72.06h-12.25c-3.34 0-6.05-2.7-6.05-6.03v-4.69h-.03c-3.33 0-6.04-2.7-6.04-6.02v-4.69h.25c-3.33 0-6.05-2.71-6.05-6.03v-4.69h18.81l.89 10.72 3.37 10.71z" fill="#fff"/></g><g><path d="m29.15 72.06h-9.73c-3.34 0-6.05-2.7-6.05-6.03v-4.69h-.03c-3.33 0-6.04-2.7-6.04-6.02v-4.69h.25c-3.33 0-6.05-2.71-6.05-6.03v-4.69h16.29l.89 10.72 3.37 10.71z" fill="#b6e3ff"/></g><g><path d="m98.5 39.91v4.69c0 3.32-2.72 6.03-6.05 6.03h.25v4.69c0 3.32-2.71 6.02-6.04 6.02h-.03v4.69c0 3.33-2.71 6.03-6.05 6.03h-12.25l7.1-10.72 3.37-10.71.89-10.72z" fill="#fff"/></g><g><path d="m95.38 39.91v4.69c0 3.32-2.71 6.03-6.04 6.03h.25v4.69c0 3.32-2.72 6.02-6.05 6.02h-.03v4.69c0 3.33-2.71 6.03-6.04 6.03h-9.14l7.1-10.72 3.37-10.71.89-10.72z" fill="#b6e3ff"/></g><g><path d="m47.963 81.197c-19.404-4.323-28.411-25.009-27.278-43.21l.587-9.435s14.06.472 23.137-6.039l5.591-4.163 5.591 4.163c13.492 8.506 23.136 6.039 23.136 6.039l.587 9.435c1.133 18.2-7.873 38.887-27.277 43.209l-2.037.454z" fill="#fff"/></g><g><path d="m50 82.65c-.073 0-.146-.008-.218-.024l-2.037-.454c-19.952-4.445-29.218-25.624-28.059-44.248l.587-9.436c.033-.54.491-.962 1.031-.938.139.003 13.831.38 22.521-5.852l5.576-4.153c.355-.264.841-.264 1.194 0l5.593 4.163c12.912 8.138 22.198 5.896 22.291 5.873.29-.073.596-.015.837.16.24.175.391.449.409.747l.587 9.436c1.159 18.624-8.106 39.803-28.058 44.247l-2.038.454c-.07.018-.143.025-.216.025zm-1.819-2.429 1.819.405 1.82-.406c18.857-4.2 27.604-24.394 26.497-42.171l-.517-8.319c-3.03.396-11.599.654-22.741-6.372l-5.059-3.762-4.993 3.719c-7.973 5.718-19.395 6.228-22.796 6.246l-.528 8.488c-1.107 17.777 7.639 37.971 26.498 42.172z" fill="#0080ff"/></g><g><path d="m92.448 51.626h-13.653c-.553 0-1-.448-1-1s.447-1 1-1h13.653c2.785 0 5.052-2.253 5.052-5.022v-3.697h-17.814c-.553 0-1-.448-1-1s.447-1 1-1h18.814c.553 0 1 .448 1 1v4.697c0 3.873-3.163 7.022-7.052 7.022z" fill="#0080ff"/></g><g><path d="m86.658 62.336h-11.225c-.553 0-1-.448-1-1s.447-1 1-1h11.198c2.808 0 5.069-2.249 5.069-5.013v-3.697h-12.905c-.553 0-1-.448-1-1s.447-1 1-1h13.905c.553 0 1 .448 1 1v4.697c0 3.867-3.159 7.013-7.042 7.013z" fill="#0080ff"/></g><g><path d="m80.579 73.056h-12.25c-.553 0-1-.448-1-1s.447-1 1-1h12.25c2.785 0 5.052-2.252 5.052-5.021v-3.698h-10.198c-.553 0-1-.448-1-1s.447-1 1-1h11.198c.553 0 1 .448 1 1v4.698c0 3.871-3.163 7.021-7.052 7.021z" fill="#0080ff"/></g><g><path d="m21.205 51.626h-13.653c-3.889 0-7.052-3.15-7.052-7.022v-4.697c0-.552.447-1 1-1h18.814c.553 0 1 .448 1 1s-.447 1-1 1h-17.814v3.697c0 2.769 2.267 5.022 5.052 5.022h13.653c.553 0 1 .448 1 1s-.447 1-1 1z" fill="#0080ff"/></g><g><path d="m24.567 62.336h-11.198c-3.91 0-7.069-3.146-7.069-7.013v-4.697c0-.552.447-1 1-1h13.905c.553 0 1 .448 1 1s-.447 1-1 1h-12.905v3.697c0 2.764 2.262 5.013 5.042 5.013h11.226c.553 0 1 .448 1 1s-.448 1-1.001 1z" fill="#0080ff"/></g><g><path d="m31.671 73.056h-12.25c-3.889 0-7.052-3.15-7.052-7.021v-4.698c0-.552.447-1 1-1h11.198c.553 0 1 .448 1 1s-.447 1-1 1h-10.198v3.698c0 2.769 2.267 5.021 5.052 5.021h12.25c.553 0 1 .448 1 1s-.447 1-1 1z" fill="#0080ff"/></g><g><path d="m60.76 62.14c-3.37 3.36-7.92 4.81-12.32 4.36-3.36-.34-6.63-1.79-9.2-4.35-5.94-5.92-5.94-15.52 0-21.44 2.57-2.56 5.84-4.02 9.2-4.36 4.4-.45 8.95 1 12.32 4.36 5.94 5.92 5.94 15.52 0 21.43z" fill="#fff"/></g><g><path d="m57.64 62.14c-2.57 2.56-5.84 4.02-9.2 4.36-3.36-.34-6.63-1.79-9.2-4.35-5.94-5.92-5.94-15.52 0-21.44 2.57-2.56 5.84-4.02 9.2-4.36 3.36.34 6.63 1.8 9.2 4.36 5.94 5.92 5.94 15.52 0 21.43z" fill="#b6e3ff"/></g><g><path d="m49.998 67.577c-4.151 0-8.302-1.574-11.462-4.722-3.062-3.051-4.75-7.108-4.75-11.424 0-4.317 1.688-8.375 4.752-11.428 6.32-6.297 16.604-6.297 22.927 0 3.062 3.051 4.749 7.108 4.749 11.424 0 4.317-1.687 8.374-4.749 11.425-3.162 3.15-7.315 4.725-11.467 4.725zm.003-30.298c-3.64 0-7.28 1.38-10.051 4.141-2.686 2.674-4.164 6.229-4.164 10.011 0 3.78 1.479 7.333 4.162 10.007 5.542 5.521 14.561 5.52 20.104-.002 2.684-2.673 4.161-6.227 4.161-10.008s-1.478-7.334-4.161-10.007c-2.771-2.761-6.41-4.142-10.051-4.142z" fill="#0080ff"/></g><g><path d="m45.212 65.269c-.338 0-.668-.171-.856-.481-.286-.472-.136-1.087.337-1.374.798-.484 1.621-1.026 2.446-1.611.448-.319 1.075-.213 1.394.237.319.451.214 1.075-.237 1.395-.863.612-1.727 1.181-2.565 1.689-.164.098-.342.145-.519.145zm4.899-3.459c-.294 0-.584-.128-.781-.375-.346-.431-.275-1.061.155-1.406.753-.603 1.511-1.242 2.252-1.902.412-.367 1.045-.331 1.412.083.367.413.33 1.044-.082 1.412-.768.683-1.553 1.346-2.332 1.97-.184.146-.405.218-.624.218zm4.484-3.983c-.261 0-.521-.101-.717-.303-.385-.396-.376-1.029.02-1.414l.408-.402c.57-.567 1.121-1.138 1.652-1.709.378-.405 1.011-.425 1.413-.051.405.376.428 1.009.052 1.414-.549.59-1.117 1.179-1.706 1.764l-.425.419c-.194.188-.446.282-.697.282zm4.084-4.392c-.227 0-.455-.077-.644-.235-.422-.356-.477-.987-.12-1.409.643-.763 1.26-1.538 1.834-2.303.333-.441.96-.53 1.4-.199.441.332.53.958.199 1.4-.598.794-1.238 1.599-1.904 2.39-.197.234-.48.356-.765.356zm3.593-4.802c-.188 0-.377-.053-.546-.163-.462-.302-.593-.921-.291-1.384.56-.857 1.062-1.698 1.492-2.5.028-.053.062-.104.1-.151.346-.433.976-.501 1.407-.158.393.314.486.864.238 1.286-.453.843-.979 1.723-1.562 2.616-.191.295-.511.454-.838.454z" fill="#0080ff"/></g><g><path d="m38.538 62.394c-.37 0-.726-.206-.898-.56-.243-.496-.038-1.095.457-1.338.81-.397 1.664-.871 2.54-1.409.469-.289 1.085-.143 1.376.329.289.471.142 1.086-.329 1.375-.93.571-1.84 1.076-2.706 1.5-.142.07-.292.103-.44.103zm5.119-3.118c-.312 0-.618-.145-.813-.417-.322-.449-.219-1.074.23-1.396.775-.556 1.562-1.155 2.341-1.783.431-.347 1.061-.279 1.406.15.347.43.279 1.06-.15 1.406-.808.651-1.626 1.275-2.433 1.853-.176.126-.38.187-.581.187zm4.67-3.762c-.274 0-.548-.112-.745-.333-.368-.412-.333-1.044.078-1.412.723-.646 1.446-1.327 2.152-2.021.393-.389 1.025-.382 1.414.011.387.394.382 1.027-.012 1.414-.728.717-1.475 1.419-2.221 2.086-.189.171-.429.255-.666.255zm4.274-4.209c-.243 0-.486-.088-.679-.266-.405-.375-.431-1.007-.056-1.413.677-.733 1.332-1.478 1.947-2.215.353-.423.984-.482 1.408-.127.424.354.481.984.127 1.408-.636.763-1.313 1.533-2.014 2.291-.196.214-.465.322-.733.322zm3.84-4.606c-.208 0-.417-.064-.597-.198-.442-.33-.534-.957-.204-1.399.604-.81 1.167-1.62 1.674-2.407.3-.464.918-.599 1.383-.298.464.299.598.918.299 1.382-.532.824-1.121 1.671-1.752 2.518-.196.263-.497.402-.803.402zm3.234-5.048c-.157 0-.317-.037-.467-.116-.488-.258-.675-.864-.416-1.352.109-.207.214-.411.312-.613.243-.495.842-.7 1.338-.458.496.243.701.842.459 1.338-.108.221-.223.443-.342.668-.179.34-.526.533-.884.533z" fill="#0080ff"/></g></g></g><g id="Sheild"/><g id="Trophy"/><g id="Medal_1_"/><g id="Cricket_1_"/><g id="Medal"/><g id="Stadium"/><g id="Trun_Right"/><g id="Cricket_Cap"/><g id="Six"/><g id="Out_1_"/><g id="Not_Out"/><g id="Out"/><g id="Bowlled"/><g id="Glove"/><g id="Wicket"/><g id="Cricket"/><g id="Bat"/><g id="Ball"/></svg>